<?xml version="1.0" encoding="UTF-8"?><svg id="Calque_2" xmlns="http://www.w3.org/2000/svg" xmlns:xlink="http://www.w3.org/1999/xlink" viewBox="0 0 518.75 600"><defs><style>.cls-1{fill:url(#linear-gradient-2);}.cls-2{fill:#fff;}.cls-3{fill:#002c56;}.cls-4{fill:#2baef3;}.cls-5{fill:#00558d;}.cls-6{fill:#1452b4;}.cls-7{fill:#e6e6e6;}.cls-8{fill:url(#radial-gradient);}.cls-9{fill:#4300b3;}.cls-10{fill:#004d96;}.cls-11{fill:#369;}.cls-11,.cls-12{opacity:.5;}.cls-13{fill:#0071bc;}.cls-14{fill:#001326;}.cls-15{fill:#c4faff;}.cls-16{fill:#ccc;}.cls-17{fill:#555cff;}.cls-18{fill:url(#linear-gradient-3);}.cls-19{fill:#1a1a1a;}.cls-20{fill:url(#linear-gradient);}.cls-21{fill:#beeaff;opacity:.25;}.cls-22{fill:#ef8a13;}.cls-23{fill:url(#linear-gradient-4);}.cls-24{fill:#fbbf3b;}.cls-25{fill:#feb501;}.cls-12{fill:#f9fef3;}</style><linearGradient id="linear-gradient" x1="133.45" y1="111.4" x2="559.49" y2="522.44" gradientUnits="userSpaceOnUse"><stop offset="0" stop-color="#00e8d4"/><stop offset=".17" stop-color="#00e1d4"/><stop offset=".39" stop-color="#00d0d4"/><stop offset=".64" stop-color="#00b4d4"/><stop offset=".92" stop-color="#008dd4"/><stop offset="1" stop-color="#0081d4"/></linearGradient><linearGradient id="linear-gradient-2" x1="103.24" y1="406.11" x2="103.24" y2="524.64" gradientTransform="translate(-248.16 140.34) rotate(-34.31)" gradientUnits="userSpaceOnUse"><stop offset="0" stop-color="#000"/><stop offset=".09" stop-color="#020813"/><stop offset=".28" stop-color="#061a3a"/><stop offset=".47" stop-color="#092859"/><stop offset=".66" stop-color="#0c326f"/><stop offset=".84" stop-color="#0d387c"/><stop offset="1" stop-color="#0e3b81"/></linearGradient><linearGradient id="linear-gradient-3" x1="179.53" x2="179.53" gradientTransform="translate(61.71 963.32) rotate(-145.69)" xlink:href="#linear-gradient-2"/><radialGradient id="radial-gradient" cx="141.39" cy="410.25" fx="141.39" fy="410.25" r="57.54" gradientUnits="userSpaceOnUse"><stop offset="0" stop-color="#e8f3f5"/><stop offset=".44" stop-color="#e6f1f3"/><stop offset=".59" stop-color="#e0eaec"/><stop offset=".7" stop-color="#d5dee0"/><stop offset=".8" stop-color="#c6cecf"/><stop offset=".87" stop-color="#b3b8b9"/><stop offset=".94" stop-color="#9b9e9f"/><stop offset="1" stop-color="gray"/></radialGradient><linearGradient id="linear-gradient-4" x1="490.65" y1="343.6" x2="276.4" y2="491.04" gradientUnits="userSpaceOnUse"><stop offset="0" stop-color="#5ccbdd"/><stop offset=".17" stop-color="#5bc4dd"/><stop offset=".4" stop-color="#58b3dd"/><stop offset=".66" stop-color="#5397dd"/><stop offset=".94" stop-color="#4d70dd"/><stop offset="1" stop-color="#4c68dd"/></linearGradient></defs><g id="Layer_1"><path class="cls-20" d="m518.75,0v600H179.75c-24.94-8.08-70.59-26.63-112-69-17.73-18.14-49.28-50.42-62-102-18.23-73.93,7.67-165.5,66-204,36.93-24.37,60.18-11.84,88-42,31.35-33.99,17.98-68.52,38-106C213.69,47.16,252.33,12.58,355.75,0h163Z"/><ellipse class="cls-11" cx="270.13" cy="484.48" rx="234.02" ry="21.66"/><polygon class="cls-10" points="179.8 320 54.24 320 62.44 244.39 179.8 244.39 179.8 320"/><rect class="cls-4" x="62.44" y="244.39" width="117.36" height="82.1"/><rect class="cls-10" x="62.44" y="237.06" width="117.36" height="7.34"/><path class="cls-15" d="m85.81,240.72c0,.83-.68,1.51-1.51,1.51s-1.51-.68-1.51-1.51.68-1.51,1.51-1.51,1.51.68,1.51,1.51Z"/><circle class="cls-15" cx="92.5" cy="240.72" r="1.51"/><circle class="cls-15" cx="76.11" cy="240.72" r="1.51"/><circle class="cls-15" cx="67.91" cy="240.72" r="1.51"/><circle class="cls-15" cx="100.7" cy="240.72" r="1.51"/><circle class="cls-15" cx="108.9" cy="240.72" r="1.51"/><circle class="cls-15" cx="117.1" cy="240.72" r="1.51"/><circle class="cls-15" cx="125.29" cy="240.72" r="1.51"/><path class="cls-15" d="m135,240.72c0,.83-.68,1.51-1.51,1.51s-1.51-.68-1.51-1.51.68-1.51,1.51-1.51,1.51.68,1.51,1.51Z"/><circle class="cls-15" cx="141.69" cy="240.72" r="1.51"/><circle class="cls-15" cx="149.89" cy="240.72" r="1.51"/><circle class="cls-15" cx="158.09" cy="240.72" r="1.51"/><circle class="cls-15" cx="166.29" cy="240.72" r="1.51"/><circle class="cls-15" cx="174.48" cy="240.72" r="1.51"/><rect class="cls-10" x="126.89" y="254.59" width="13.16" height="13.16"/><rect class="cls-10" x="151.6" y="254.59" width="13.16" height="13.16"/><rect class="cls-10" x="77.49" y="278.86" width="13.16" height="13.16"/><path class="cls-10" d="m91.15,268.25h-14.16v-14.16h14.16v14.16Zm-13.16-1h12.16v-12.16h-12.16v12.16Z"/><path class="cls-10" d="m115.85,268.25h-14.16v-14.16h14.16v14.16Zm-13.16-1h12.16v-12.16h-12.16v12.16Z"/><path class="cls-10" d="m115.85,292.52h-14.16v-14.16h14.16v14.16Zm-13.16-1h12.16v-12.16h-12.16v12.16Z"/><path class="cls-10" d="m140.55,292.52h-14.16v-14.16h14.16v14.16Zm-13.16-1h12.16v-12.16h-12.16v12.16Z"/><path class="cls-10" d="m165.26,292.52h-14.16v-14.16h14.16v14.16Zm-13.16-1h12.16v-12.16h-12.16v12.16Z"/><path class="cls-10" d="m91.15,316.79h-14.16v-14.16h14.16v14.16Zm-13.16-1h12.16v-12.16h-12.16v12.16Z"/><path class="cls-10" d="m115.85,316.79h-14.16v-14.16h14.16v14.16Zm-13.16-1h12.16v-12.16h-12.16v12.16Z"/><path class="cls-10" d="m140.55,316.79h-14.16v-14.16h14.16v14.16Zm-13.16-1h12.16v-12.16h-12.16v12.16Z"/><path class="cls-10" d="m165.26,316.79h-14.16v-14.16h14.16v14.16Zm-13.16-1h12.16v-12.16h-12.16v12.16Z"/><path class="cls-15" d="m83.62,288.94c-.23,0-.44-.1-.59-.28l-3.22-4.03c-.26-.32-.21-.8.12-1.05.32-.26.79-.21,1.05.12l2.61,3.26,11.45-15.61c.24-.33.71-.41,1.05-.16.33.25.41.71.16,1.05l-12.03,16.4c-.14.19-.36.3-.59.31h-.02Z"/><path class="cls-15" d="m132.66,264.46c-.23,0-.44-.1-.59-.28l-3.22-4.03c-.26-.32-.21-.79.12-1.05.32-.26.8-.21,1.05.12l2.61,3.26,11.45-15.61c.24-.33.71-.41,1.05-.16.33.25.41.71.16,1.05l-12.03,16.4c-.14.19-.36.3-.59.31h-.02Z"/><path class="cls-15" d="m157.19,264.46c-.23,0-.44-.1-.59-.28l-3.22-4.03c-.26-.32-.21-.79.12-1.05.32-.26.79-.21,1.05.12l2.61,3.26,11.45-15.61c.24-.33.71-.41,1.05-.16.33.25.41.71.16,1.05l-12.03,16.4c-.14.19-.36.3-.59.31h-.02Z"/><path d="m139.9,333.4h2.97c4.5,0,8.15,3.65,8.15,8.15v4.84h-19.27v-4.84c0-4.5,3.65-8.15,8.15-8.15Z"/><circle class="cls-25" cx="99.39" cy="361.13" r="14.02"/><circle class="cls-25" cx="183.38" cy="361.13" r="14.02"/><rect class="cls-1" x="96.55" y="456.52" width="13.39" height="31.24" rx="5.66" ry="5.66" transform="translate(284.09 23.96) rotate(34.31)"/><rect class="cls-18" x="172.84" y="456.52" width="13.39" height="31.24" rx="5.66" ry="5.66" transform="translate(593.94 760.94) rotate(145.69)"/><circle class="cls-6" cx="141.39" cy="410.25" r="64.72"/><circle class="cls-8" cx="141.39" cy="410.25" r="52.57"/><rect class="cls-6" x="118.55" y="387.06" width="45.66" height="8.05" rx="3.41" ry="3.41" transform="translate(-249.7 532.47) rotate(-90)"/><rect class="cls-25" x="134.78" y="414.32" width="32.58" height="8.05" rx="3.41" ry="3.41" transform="translate(303.3 .42) rotate(39.87)"/><path d="m144.19,410.25c0,1.55-1.26,2.8-2.8,2.8s-2.8-1.26-2.8-2.8,1.26-2.8,2.8-2.8,2.8,1.26,2.8,2.8Z"/><path d="m148.42,459.86c-.49,0-.92-.36-.99-.86-.08-.55.3-1.05.85-1.13,5.03-.73,9.86-2.22,14.38-4.44.49-.24,1.09-.04,1.34.46.24.5.04,1.09-.46,1.34-4.7,2.31-9.74,3.87-14.97,4.63-.05,0-.1.01-.14.01Zm-15.36-.19c-.06,0-.11,0-.17-.01-5.18-.89-10.17-2.59-14.84-5.05-.49-.26-.68-.86-.42-1.35.26-.49.86-.67,1.35-.42,4.48,2.36,9.27,3.99,14.25,4.85.55.09.91.61.82,1.15-.08.49-.51.83-.98.83Zm42.57-13.21c-.26,0-.52-.1-.72-.3-.38-.4-.38-1.03.02-1.41,3.62-3.53,6.65-7.58,9.01-12.05.26-.49.86-.68,1.35-.42.49.26.68.86.42,1.35-2.46,4.66-5.62,8.88-9.39,12.55-.19.19-.45.28-.7.28Zm-69.43-.93c-.26,0-.52-.1-.72-.3-3.68-3.77-6.73-8.08-9.05-12.79-.25-.5-.04-1.09.45-1.34.49-.25,1.09-.04,1.34.45,2.23,4.52,5.16,8.65,8.69,12.27.39.39.38,1.03-.02,1.41-.19.19-.45.28-.7.28Zm83.59-25.91c-.06,0-.11,0-.17-.01-.54-.09-.91-.61-.82-1.16.46-2.68.7-5.42.7-8.14,0-2.29-.17-4.62-.5-6.91l-.03-.19c-.08-.55.3-1.05.84-1.13.55-.09,1.05.3,1.13.84l.03.21c.34,2.37.51,4.79.51,7.18,0,2.84-.24,5.69-.73,8.48-.08.49-.51.83-.98.83Zm-97.04-1.34c-.48,0-.89-.32-.96-.81l.99-.15-1,.05c-.34-2.39-.52-4.81-.52-7.2,0-2.8.24-5.62.71-8.38.09-.54.61-.91,1.15-.82.54.09.91.61.82,1.15-.45,2.65-.68,5.35-.68,8.05,0,2.29.17,4.62.5,6.9.08.55-.29,1.1-.84,1.18-.05,0-.11.01-.16.01Zm92.64-28.88c-.37,0-.72-.2-.9-.56-2.24-4.52-5.17-8.64-8.72-12.26-.39-.39-.38-1.03.01-1.41.39-.39,1.03-.38,1.41.01,3.69,3.77,6.75,8.06,9.08,12.77.25.5.04,1.09-.45,1.34-.14.07-.29.1-.44.1Zm-87.51-.98c-.16,0-.32-.04-.46-.12-.49-.26-.68-.86-.42-1.35,2.45-4.66,5.6-8.89,9.36-12.57.4-.39,1.03-.38,1.41.02.39.39.38,1.03-.02,1.41-3.61,3.53-6.64,7.59-8.99,12.07-.18.34-.53.53-.89.53Zm66.28-20.7c-.16,0-.32-.04-.46-.11-4.49-2.35-9.28-3.97-14.25-4.82-.54-.09-.91-.61-.82-1.15.09-.54.61-.9,1.15-.82,5.18.88,10.18,2.57,14.85,5.02.49.26.68.86.42,1.35-.18.34-.53.54-.89.54Zm-44.58-.51c-.37,0-.72-.2-.9-.56-.25-.5-.04-1.09.45-1.34,4.7-2.32,9.73-3.89,14.96-4.66.54-.09,1.05.3,1.13.84.08.55-.3,1.05-.84,1.13-5.02.74-9.86,2.24-14.37,4.47-.14.07-.29.1-.44.1Z"/><path class="cls-3" d="m317.83,181.89v153.5c0,3.2,2.59,5.79,5.79,5.79h117.91c3.2,0,5.79-2.59,5.79-5.79v-153.5c0-3.2-2.59-5.8-5.79-5.8h-117.91c-3.2,0-5.79,2.59-5.79,5.8Zm113.71,149.29h-97.91c-3.2,0-5.79-2.59-5.79-5.79v-133.5c0-3.2,2.59-5.8,5.79-5.8h97.91c3.2,0,5.79,2.59,5.79,5.8v133.5c0,3.2-2.59,5.79-5.79,5.79Z"/><rect class="cls-2" x="327.83" y="186.09" width="109.5" height="145.09"/><path class="cls-14" d="m416.8,194.98h-28.7c-1.44,0-2.79-.56-3.81-1.57l-1.71-1.71-1.71,1.71c-1.01,1.01-2.37,1.57-3.81,1.57h-28.7c-3.46,0-6.28-2.81-6.28-6.27v-2.62h2v2.62c0,2.35,1.92,4.27,4.28,4.27h28.7c.91,0,1.76-.35,2.39-.99l1.77-1.77c.75-.75,1.96-.75,2.71,0l1.77,1.77c.64.64,1.49.99,2.39.99h28.7c2.36,0,4.28-1.92,4.28-4.27v-2.62h2v2.62c0,3.46-2.82,6.27-6.28,6.27Z"/><circle class="cls-2" cx="348.19" cy="221.56" r="7.21"/><path class="cls-16" d="m348.19,229.27c-4.25,0-7.71-3.46-7.71-7.71s3.46-7.71,7.71-7.71,7.71,3.46,7.71,7.71-3.46,7.71-7.71,7.71Zm0-14.42c-3.7,0-6.71,3.01-6.71,6.71s3.01,6.71,6.71,6.71,6.71-3.01,6.71-6.71-3.01-6.71-6.71-6.71Z"/><rect class="cls-16" x="362.73" y="222.59" width="64.5" height="1"/><rect class="cls-16" x="372.95" y="219.53" width="54.27" height="1"/><circle class="cls-2" cx="348.19" cy="247.36" r="7.21"/><path class="cls-16" d="m348.19,255.08c-4.25,0-7.71-3.46-7.71-7.71s3.46-7.71,7.71-7.71,7.71,3.46,7.71,7.71-3.46,7.71-7.71,7.71Zm0-14.42c-3.7,0-6.71,3.01-6.71,6.71s3.01,6.71,6.71,6.71,6.71-3.01,6.71-6.71-3.01-6.71-6.71-6.71Z"/><rect class="cls-16" x="362.73" y="248.4" width="64.5" height="1"/><rect class="cls-16" x="372.95" y="245.33" width="54.27" height="1"/><path class="cls-2" d="m355.4,273.17c0,3.98-3.23,7.21-7.21,7.21s-7.21-3.23-7.21-7.21,3.23-7.21,7.21-7.21,7.21,3.23,7.21,7.21Z"/><path class="cls-16" d="m348.19,280.88c-4.25,0-7.71-3.46-7.71-7.71s3.46-7.71,7.71-7.71,7.71,3.46,7.71,7.71-3.46,7.71-7.71,7.71Zm0-14.42c-3.7,0-6.71,3.01-6.71,6.71s3.01,6.71,6.71,6.71,6.71-3.01,6.71-6.71-3.01-6.71-6.71-6.71Z"/><rect class="cls-16" x="362.73" y="274.2" width="64.5" height="1"/><rect class="cls-16" x="372.95" y="271.14" width="54.27" height="1"/><circle class="cls-2" cx="348.19" cy="298.97" r="7.21"/><path class="cls-16" d="m348.19,306.68c-4.25,0-7.71-3.46-7.71-7.71s3.46-7.71,7.71-7.71,7.71,3.46,7.71,7.71-3.46,7.71-7.71,7.71Zm0-14.42c-3.7,0-6.71,3.01-6.71,6.71s3.01,6.71,6.71,6.71,6.71-3.01,6.71-6.71-3.01-6.71-6.71-6.71Z"/><rect class="cls-16" x="362.73" y="300" width="64.5" height="1"/><rect class="cls-16" x="372.95" y="296.94" width="54.27" height="1"/><path class="cls-19" d="m502.58,348.51h-238.11c-2.81,0-5.09,2.28-5.09,5.09v127.42c0,2.82,2.28,5.1,5.09,5.1h238.11c2.81,0,5.1-2.28,5.1-5.1v-127.42c0-2.81-2.29-5.09-5.1-5.09Zm-6.64,134.85h-224.82v-132.09h224.82v132.09Z"/><rect class="cls-23" x="271.11" y="351.28" width="224.82" height="132.09"/><path class="cls-2" d="m357.54,381.61c0,2.23-.24,4.16-.72,5.8-.48,1.63-1.13,2.98-1.96,4.05-.83,1.07-1.8,1.86-2.91,2.39-1.11.52-2.3.78-3.55.78s-2.44-.26-3.55-.78c-1.1-.52-2.07-1.32-2.9-2.39-.83-1.07-1.48-2.42-1.95-4.05-.47-1.63-.71-3.56-.71-5.8s.24-4.16.71-5.8c.47-1.63,1.12-2.98,1.95-4.05.83-1.07,1.79-1.86,2.9-2.38,1.1-.52,2.29-.78,3.55-.78s2.45.26,3.55.78c1.11.52,2.08,1.32,2.91,2.38.83,1.07,1.48,2.42,1.96,4.05.48,1.63.72,3.56.72,5.8Zm-1.8,0c0-2.06-.2-3.83-.59-5.29-.4-1.46-.93-2.66-1.59-3.59s-1.45-1.61-2.34-2.04c-.89-.43-1.83-.65-2.82-.65s-1.92.22-2.81.65c-.89.43-1.67,1.11-2.34,2.04-.67.93-1.21,2.13-1.6,3.59-.4,1.46-.59,3.23-.59,5.29s.2,3.84.59,5.3c.4,1.46.93,2.65,1.6,3.58.67.93,1.45,1.61,2.34,2.03.89.43,1.82.64,2.81.64s1.92-.21,2.82-.64c.89-.43,1.67-1.1,2.34-2.03.67-.93,1.2-2.12,1.59-3.58.4-1.46.59-3.22.59-5.3Z"/><path class="cls-2" d="m378.42,381.61c0,2.23-.24,4.16-.72,5.8-.48,1.63-1.13,2.98-1.96,4.05-.83,1.07-1.8,1.86-2.91,2.39-1.11.52-2.29.78-3.55.78s-2.44-.26-3.55-.78c-1.1-.52-2.07-1.32-2.9-2.39-.83-1.07-1.48-2.42-1.95-4.05-.47-1.63-.71-3.56-.71-5.8s.24-4.16.71-5.8c.47-1.63,1.12-2.98,1.95-4.05.83-1.07,1.79-1.86,2.9-2.38,1.1-.52,2.29-.78,3.55-.78s2.45.26,3.55.78c1.11.52,2.08,1.32,2.91,2.38.83,1.07,1.48,2.42,1.96,4.05.48,1.63.72,3.56.72,5.8Zm-1.8,0c0-2.06-.2-3.83-.59-5.29-.4-1.46-.93-2.66-1.59-3.59s-1.45-1.61-2.34-2.04c-.89-.43-1.83-.65-2.82-.65s-1.92.22-2.81.65c-.89.43-1.67,1.11-2.34,2.04-.67.93-1.21,2.13-1.6,3.59-.4,1.46-.59,3.23-.59,5.29s.2,3.84.59,5.3c.4,1.46.93,2.65,1.6,3.58.67.93,1.45,1.61,2.34,2.03.89.43,1.82.64,2.81.64s1.92-.21,2.82-.64c.89-.43,1.67-1.1,2.34-2.03.67-.93,1.2-2.12,1.59-3.58.4-1.46.59-3.22.59-5.3Z"/><path class="cls-2" d="m381.62,392.97c0-.23.04-.44.13-.65s.2-.38.35-.53.32-.27.52-.36c.2-.09.42-.13.66-.13.23,0,.44.04.65.13.2.09.38.21.53.36s.27.33.36.53c.09.2.13.42.13.65,0,.24-.04.46-.13.66-.09.2-.21.37-.36.52-.15.15-.33.27-.53.35-.2.08-.42.13-.65.13-.47,0-.86-.16-1.18-.48-.32-.32-.48-.71-.48-1.18Z"/><path class="cls-2" d="m406.41,381.61c0,2.23-.24,4.16-.72,5.8-.48,1.63-1.13,2.98-1.96,4.05-.83,1.07-1.8,1.86-2.91,2.39-1.11.52-2.29.78-3.55.78s-2.44-.26-3.55-.78c-1.1-.52-2.07-1.32-2.9-2.39-.83-1.07-1.48-2.42-1.95-4.05-.47-1.63-.71-3.56-.71-5.8s.24-4.16.71-5.8c.47-1.63,1.12-2.98,1.95-4.05.83-1.07,1.79-1.86,2.9-2.38,1.1-.52,2.29-.78,3.55-.78s2.45.26,3.55.78c1.11.52,2.08,1.32,2.91,2.38.83,1.07,1.48,2.42,1.96,4.05.48,1.63.72,3.56.72,5.8Zm-1.8,0c0-2.06-.2-3.83-.59-5.29-.4-1.46-.93-2.66-1.59-3.59s-1.45-1.61-2.34-2.04c-.89-.43-1.83-.65-2.82-.65s-1.92.22-2.81.65c-.89.43-1.67,1.11-2.34,2.04-.67.93-1.21,2.13-1.6,3.59-.4,1.46-.59,3.23-.59,5.29s.2,3.84.59,5.3c.4,1.46.93,2.65,1.6,3.58.67.93,1.45,1.61,2.34,2.03.89.43,1.82.64,2.81.64s1.92-.21,2.82-.64c.89-.43,1.67-1.1,2.34-2.03.67-.93,1.2-2.12,1.59-3.58.4-1.46.59-3.22.59-5.3Z"/><path class="cls-2" d="m427.29,381.61c0,2.23-.24,4.16-.72,5.8-.48,1.63-1.13,2.98-1.96,4.05-.83,1.07-1.8,1.86-2.91,2.39-1.11.52-2.29.78-3.55.78s-2.44-.26-3.55-.78c-1.1-.52-2.07-1.32-2.9-2.39-.83-1.07-1.48-2.42-1.95-4.05-.47-1.63-.71-3.56-.71-5.8s.24-4.16.71-5.8c.47-1.63,1.12-2.98,1.95-4.05.83-1.07,1.79-1.86,2.9-2.38,1.1-.52,2.29-.78,3.55-.78s2.45.26,3.55.78c1.11.52,2.08,1.32,2.91,2.38.83,1.07,1.48,2.42,1.96,4.05.48,1.63.72,3.56.72,5.8Zm-1.8,0c0-2.06-.2-3.83-.59-5.29-.4-1.46-.93-2.66-1.59-3.59-.67-.93-1.45-1.61-2.34-2.04-.89-.43-1.83-.65-2.82-.65s-1.92.22-2.81.65c-.89.43-1.67,1.11-2.34,2.04-.67.93-1.21,2.13-1.6,3.59-.4,1.46-.59,3.23-.59,5.29s.2,3.84.59,5.3c.4,1.46.93,2.65,1.6,3.58.67.93,1.45,1.61,2.34,2.03.89.43,1.82.64,2.81.64s1.92-.21,2.82-.64c.89-.43,1.67-1.1,2.34-2.03.67-.93,1.2-2.12,1.59-3.58.4-1.46.59-3.22.59-5.3Z"/><path class="cls-2" d="m435.61,394.35h-.43c-.05,0-.09-.01-.13-.04-.03-.03-.06-.06-.08-.11l-.92-2.26h-3.82l-.91,2.26s-.04.08-.08.1c-.04.03-.08.04-.13.04h-.43l3.18-7.78h.56l3.18,7.78Zm-5.21-2.83h3.49l-1.59-3.93c-.03-.06-.05-.13-.08-.21-.03-.08-.05-.16-.08-.25-.03.09-.05.17-.08.25-.03.08-.05.15-.08.22l-1.59,3.93Z"/><path class="cls-2" d="m440.73,392.42c.02-.06.04-.12.07-.17.02-.06.05-.11.08-.16l3.06-5.41s.06-.08.09-.09c.03-.01.07-.02.12-.02h.39v7.78h-.5v-6.63c0-.1,0-.2.02-.3l-3.06,5.44c-.05.1-.12.14-.22.14h-.09c-.09,0-.17-.05-.22-.14l-3.15-5.45c.01.11.02.21.02.31v6.63h-.49v-7.78h.38c.05,0,.09,0,.12.02.03.01.06.04.09.09l3.14,5.41c.06.1.1.21.14.33Z"/><path class="cls-2" d="m308.58,421.27c0,.5-.05.93-.16,1.29-.11.36-.25.66-.44.9s-.4.41-.65.53c-.25.12-.51.17-.79.17s-.54-.06-.79-.17c-.25-.12-.46-.29-.64-.53-.18-.24-.33-.54-.43-.9-.11-.36-.16-.79-.16-1.29s.05-.92.16-1.29c.11-.36.25-.66.43-.9.18-.24.4-.41.64-.53.25-.12.51-.17.79-.17s.54.06.79.17c.25.12.46.29.65.53s.33.54.44.9c.11.36.16.79.16,1.29Zm-.4,0c0-.46-.04-.85-.13-1.18-.09-.33-.21-.59-.35-.8-.15-.21-.32-.36-.52-.45-.2-.1-.41-.14-.63-.14s-.43.05-.62.14c-.2.1-.37.25-.52.45-.15.21-.27.47-.36.8-.09.33-.13.72-.13,1.18s.04.85.13,1.18c.09.32.21.59.36.8.15.21.32.36.52.45.2.09.41.14.62.14s.43-.05.63-.14c.2-.09.37-.25.52-.45.15-.21.27-.47.35-.8.09-.32.13-.72.13-1.18Z"/><path class="cls-2" d="m311.17,421.7c-.23,0-.45-.04-.64-.11-.2-.08-.37-.18-.51-.33-.14-.14-.25-.31-.33-.51-.08-.2-.12-.42-.12-.67s.04-.47.13-.67c.09-.21.21-.39.37-.54.16-.15.35-.27.57-.36.22-.09.46-.13.72-.13s.48.04.69.13c.21.08.39.21.54.36.15.16.27.34.35.56.08.22.13.46.13.73,0,.15-.02.29-.05.42-.03.13-.08.27-.14.4-.06.13-.13.27-.22.41-.08.14-.18.29-.29.45l-1.48,2.18c-.04.06-.1.09-.2.09h-.34l1.67-2.34c.08-.11.15-.22.22-.32.07-.1.13-.2.19-.29-.15.17-.34.3-.56.4-.22.09-.46.14-.71.14Zm1.54-1.61c0-.21-.03-.39-.1-.56-.07-.17-.16-.32-.28-.44-.12-.12-.26-.22-.43-.28-.16-.07-.34-.1-.54-.1-.21,0-.4.03-.57.1-.17.07-.32.16-.45.28-.12.12-.22.26-.29.43-.07.17-.1.35-.1.55s.03.4.1.56c.06.17.15.31.27.42.12.12.26.2.42.27.16.06.35.09.55.09.23,0,.43-.04.61-.12.18-.08.33-.18.45-.3.12-.12.21-.27.28-.42.06-.16.09-.31.09-.47Z"/><path class="cls-2" d="m313.94,423.8c0-.05,0-.1.03-.14.02-.04.04-.08.08-.12.03-.03.07-.06.12-.08.04-.02.09-.03.15-.03.05,0,.1,0,.14.03.05.02.09.05.12.08s.06.07.08.12c.02.05.03.09.03.14s0,.1-.03.15c-.02.04-.05.08-.08.12s-.07.06-.12.08c-.04.02-.09.03-.14.03-.1,0-.19-.04-.26-.11-.07-.07-.11-.16-.11-.26Z"/><path class="cls-2" d="m319.44,421.27c0,.5-.05.93-.16,1.29-.11.36-.25.66-.44.9s-.4.41-.65.53c-.25.12-.51.17-.79.17s-.54-.06-.79-.17c-.25-.12-.46-.29-.64-.53-.18-.24-.33-.54-.43-.9-.11-.36-.16-.79-.16-1.29s.05-.92.16-1.29c.11-.36.25-.66.43-.9.18-.24.4-.41.64-.53.25-.12.51-.17.79-.17s.54.06.79.17c.25.12.46.29.65.53s.33.54.44.9c.11.36.16.79.16,1.29Zm-.4,0c0-.46-.04-.85-.13-1.18-.09-.33-.21-.59-.35-.8-.15-.21-.32-.36-.52-.45-.2-.1-.41-.14-.63-.14s-.43.05-.62.14c-.2.1-.37.25-.52.45-.15.21-.27.47-.36.8-.09.33-.13.72-.13,1.18s.04.85.13,1.18c.09.32.21.59.36.8.15.21.32.36.52.45.2.09.41.14.62.14s.43-.05.63-.14c.2-.09.37-.25.52-.45.15-.21.27-.47.35-.8.09-.32.13-.72.13-1.18Z"/><path class="cls-2" d="m324.08,421.27c0,.5-.05.93-.16,1.29-.11.36-.25.66-.44.9s-.4.41-.65.53c-.25.12-.51.17-.79.17s-.54-.06-.79-.17c-.25-.12-.46-.29-.64-.53-.18-.24-.33-.54-.43-.9-.11-.36-.16-.79-.16-1.29s.05-.92.16-1.29c.11-.36.25-.66.43-.9.18-.24.4-.41.64-.53.25-.12.51-.17.79-.17s.54.06.79.17c.25.12.46.29.65.53s.33.54.44.9c.11.36.16.79.16,1.29Zm-.4,0c0-.46-.04-.85-.13-1.18-.09-.33-.21-.59-.35-.8-.15-.21-.32-.36-.52-.45-.2-.1-.41-.14-.63-.14s-.43.05-.62.14c-.2.1-.37.25-.52.45-.15.21-.27.47-.36.8-.09.33-.13.72-.13,1.18s.04.85.13,1.18c.09.32.21.59.36.8.15.21.32.36.52.45.2.09.41.14.62.14s.43-.05.63-.14c.2-.09.37-.25.52-.45.15-.21.27-.47.35-.8.09-.32.13-.72.13-1.18Z"/><path class="cls-7" d="m460.17,418.79h-6.98c-1.46,0-2.65,1.19-2.65,2.65h0c0,1.46,1.19,2.65,2.65,2.65h6.98c1.46,0,2.65-1.19,2.65-2.65h0c0-1.46-1.19-2.65-2.65-2.65Z"/><path class="cls-2" d="m456.9,421.43c0,2.03-1.64,3.67-3.67,3.67s-3.67-1.64-3.67-3.67,1.64-3.67,3.67-3.67,3.67,1.64,3.67,3.67Z"/><path class="cls-9" d="m308.58,433.98c0,.5-.05.93-.16,1.29-.11.36-.25.66-.44.9s-.4.41-.65.53c-.25.12-.51.17-.79.17s-.54-.06-.79-.17c-.25-.12-.46-.29-.64-.53-.18-.24-.33-.54-.43-.9-.11-.36-.16-.79-.16-1.29s.05-.92.16-1.29c.11-.36.25-.66.43-.9.18-.24.4-.41.64-.53.25-.12.51-.17.79-.17s.54.06.79.17c.25.12.46.29.65.53s.33.54.44.9c.11.36.16.79.16,1.29Zm-.4,0c0-.46-.04-.85-.13-1.18-.09-.33-.21-.59-.35-.8-.15-.21-.32-.36-.52-.45-.2-.1-.41-.14-.63-.14s-.43.05-.62.14c-.2.1-.37.25-.52.45-.15.21-.27.47-.36.8-.09.33-.13.72-.13,1.18s.04.85.13,1.18c.09.32.21.59.36.8.15.21.32.36.52.45.2.09.41.14.62.14s.43-.05.63-.14c.2-.09.37-.25.52-.45.15-.21.27-.47.35-.8.09-.32.13-.72.13-1.18Z"/><path class="cls-9" d="m311.2,436.88c-.27,0-.52-.04-.75-.11-.23-.07-.42-.18-.58-.31-.16-.14-.29-.3-.38-.49-.09-.19-.14-.41-.14-.65,0-.21.03-.39.09-.56.06-.16.14-.3.25-.42.11-.12.24-.22.39-.3s.32-.14.5-.18c-.17-.05-.31-.11-.44-.2-.13-.08-.24-.18-.32-.3-.09-.11-.15-.24-.2-.38-.05-.14-.07-.29-.07-.45,0-.2.04-.39.11-.56.08-.18.18-.33.33-.46.14-.13.31-.23.51-.31.2-.07.43-.11.68-.11s.48.04.68.11c.2.08.37.18.52.31.14.13.25.28.33.46s.11.36.11.56c0,.16-.02.31-.07.45-.04.14-.11.27-.2.38-.09.12-.2.21-.32.3-.13.08-.28.15-.44.2.18.04.35.1.5.18s.28.18.39.3c.11.12.2.26.26.42.06.16.09.35.09.56,0,.24-.05.46-.14.65-.09.19-.22.36-.38.49-.16.14-.36.24-.58.31-.23.07-.47.11-.75.11Zm0-.3c.22,0,.41-.03.59-.09.18-.06.33-.15.46-.26.13-.11.23-.24.3-.4.07-.15.1-.33.1-.52,0-.25-.04-.46-.14-.62-.09-.16-.21-.3-.35-.4-.14-.1-.3-.17-.47-.21-.17-.04-.34-.06-.5-.06s-.33.02-.5.06c-.17.04-.33.11-.47.21-.14.1-.26.23-.35.4-.09.17-.14.37-.14.62,0,.19.03.36.1.52.07.16.17.29.29.4.13.11.28.2.46.26.18.06.38.09.59.09Zm0-2.86c.22,0,.4-.03.56-.1.16-.07.29-.15.39-.26.1-.11.18-.24.23-.38.05-.14.07-.29.07-.44,0-.16-.03-.31-.08-.45-.06-.14-.14-.26-.25-.37-.11-.1-.24-.19-.4-.24-.16-.06-.33-.09-.53-.09s-.38.03-.54.09-.29.14-.4.24c-.11.1-.19.23-.25.37-.06.14-.08.29-.08.45,0,.15.03.3.07.44.05.14.13.27.23.38.1.11.24.2.39.26.16.07.35.1.57.1Z"/><path class="cls-9" d="m313.94,436.51c0-.05,0-.1.03-.14.02-.04.04-.08.08-.12.03-.03.07-.06.12-.08.04-.02.09-.03.15-.03.05,0,.1,0,.14.03.05.02.09.05.12.08.03.03.06.07.08.12.02.05.03.09.03.14s0,.1-.03.15c-.02.04-.05.08-.08.12s-.07.06-.12.08c-.04.02-.09.03-.14.03-.1,0-.19-.04-.26-.11-.07-.07-.11-.16-.11-.26Z"/><path class="cls-9" d="m319.44,433.98c0,.5-.05.93-.16,1.29-.11.36-.25.66-.44.9s-.4.41-.65.53c-.25.12-.51.17-.79.17s-.54-.06-.79-.17c-.25-.12-.46-.29-.64-.53-.18-.24-.33-.54-.43-.9-.11-.36-.16-.79-.16-1.29s.05-.92.16-1.29c.11-.36.25-.66.43-.9.18-.24.4-.41.64-.53.25-.12.51-.17.79-.17s.54.06.79.17c.25.12.46.29.65.53s.33.54.44.9c.11.36.16.79.16,1.29Zm-.4,0c0-.46-.04-.85-.13-1.18-.09-.33-.21-.59-.35-.8-.15-.21-.32-.36-.52-.45-.2-.1-.41-.14-.63-.14s-.43.05-.62.14c-.2.1-.37.25-.52.45-.15.21-.27.47-.36.8-.09.33-.13.72-.13,1.18s.04.85.13,1.18c.09.32.21.59.36.8.15.21.32.36.52.45.2.09.41.14.62.14s.43-.05.63-.14c.2-.09.37-.25.52-.45.15-.21.27-.47.35-.8.09-.32.13-.72.13-1.18Z"/><path class="cls-9" d="m324.08,433.98c0,.5-.05.93-.16,1.29-.11.36-.25.66-.44.9s-.4.41-.65.53c-.25.12-.51.17-.79.17s-.54-.06-.79-.17c-.25-.12-.46-.29-.64-.53-.18-.24-.33-.54-.43-.9-.11-.36-.16-.79-.16-1.29s.05-.92.16-1.29c.11-.36.25-.66.43-.9.18-.24.4-.41.64-.53.25-.12.51-.17.79-.17s.54.06.79.17c.25.12.46.29.65.53s.33.54.44.9c.11.36.16.79.16,1.29Zm-.4,0c0-.46-.04-.85-.13-1.18-.09-.33-.21-.59-.35-.8-.15-.21-.32-.36-.52-.45-.2-.1-.41-.14-.63-.14s-.43.05-.62.14c-.2.1-.37.25-.52.45-.15.21-.27.47-.36.8-.09.33-.13.72-.13,1.18s.04.85.13,1.18c.09.32.21.59.36.8.15.21.32.36.52.45.2.09.41.14.62.14s.43-.05.63-.14c.2-.09.37-.25.52-.45.15-.21.27-.47.35-.8.09-.32.13-.72.13-1.18Z"/><path class="cls-9" d="m452.22,431.49h6.98c1.46,0,2.65,1.19,2.65,2.65h0c0,1.46-1.19,2.65-2.65,2.65h-6.98c-1.46,0-2.65-1.19-2.65-2.65h0c0-1.46,1.19-2.65,2.65-2.65Z"/><path class="cls-17" d="m455.48,434.14c0,2.03,1.64,3.67,3.67,3.67s3.67-1.64,3.67-3.67-1.64-3.67-3.67-3.67-3.67,1.64-3.67,3.67Z"/><path class="cls-2" d="m308.58,446.69c0,.5-.05.93-.16,1.29-.11.36-.25.66-.44.9s-.4.41-.65.53c-.25.12-.51.17-.79.17s-.54-.06-.79-.17c-.25-.12-.46-.29-.64-.53-.18-.24-.33-.54-.43-.9-.11-.36-.16-.79-.16-1.29s.05-.92.16-1.29c.11-.36.25-.66.43-.9.18-.24.4-.41.64-.53.25-.12.51-.17.79-.17s.54.06.79.17c.25.12.46.29.65.53s.33.54.44.9c.11.36.16.79.16,1.29Zm-.4,0c0-.46-.04-.85-.13-1.18-.09-.33-.21-.59-.35-.8-.15-.21-.32-.36-.52-.45-.2-.1-.41-.14-.63-.14s-.43.05-.62.14c-.2.1-.37.25-.52.45-.15.21-.27.47-.36.8-.09.33-.13.72-.13,1.18s.04.85.13,1.18c.09.32.21.59.36.8.15.21.32.36.52.45.2.09.41.14.62.14s.43-.05.63-.14c.2-.09.37-.25.52-.45.15-.21.27-.47.35-.8.09-.32.13-.72.13-1.18Z"/><path class="cls-2" d="m312.74,444.03c0,.05-.02.1-.05.13-.04.04-.09.05-.17.05h-2.05l-.34,1.89c.18-.04.35-.08.51-.1.16-.02.31-.03.46-.03.29,0,.55.04.78.13s.41.2.56.35.26.33.34.54c.08.21.12.43.12.68,0,.3-.05.57-.16.8-.1.24-.25.44-.42.6-.18.17-.38.29-.62.38s-.49.13-.76.13c-.16,0-.31-.01-.45-.04-.14-.03-.28-.07-.4-.11s-.24-.1-.34-.16c-.1-.06-.2-.12-.28-.19l.11-.16s.07-.06.12-.06c.03,0,.08.02.15.06.07.04.15.08.25.13.1.05.22.09.36.13.14.04.3.06.49.06.22,0,.42-.04.61-.11.19-.07.35-.17.49-.31.14-.13.25-.3.33-.49.08-.2.12-.42.12-.67,0-.2-.03-.39-.09-.56-.06-.17-.15-.32-.27-.44-.12-.12-.27-.22-.46-.28-.18-.07-.4-.1-.65-.1-.15,0-.31.01-.48.04-.17.02-.35.06-.54.12l-.25-.08.44-2.51h2.54v.16Z"/><path class="cls-2" d="m313.94,449.21c0-.05,0-.1.03-.14.02-.04.04-.08.08-.12.03-.03.07-.06.12-.08.04-.02.09-.03.15-.03.05,0,.1,0,.14.03.05.02.09.05.12.08s.06.07.08.12c.02.05.03.09.03.14s0,.1-.03.15c-.02.04-.05.08-.08.12s-.07.06-.12.08c-.04.02-.09.03-.14.03-.1,0-.19-.04-.26-.11-.07-.07-.11-.16-.11-.26Z"/><path class="cls-2" d="m319.44,446.69c0,.5-.05.93-.16,1.29-.11.36-.25.66-.44.9s-.4.41-.65.53c-.25.12-.51.17-.79.17s-.54-.06-.79-.17c-.25-.12-.46-.29-.64-.53-.18-.24-.33-.54-.43-.9-.11-.36-.16-.79-.16-1.29s.05-.92.16-1.29c.11-.36.25-.66.43-.9.18-.24.4-.41.64-.53.25-.12.51-.17.79-.17s.54.06.79.17c.25.12.46.29.65.53s.33.54.44.9c.11.36.16.79.16,1.29Zm-.4,0c0-.46-.04-.85-.13-1.18-.09-.33-.21-.59-.35-.8-.15-.21-.32-.36-.52-.45-.2-.1-.41-.14-.63-.14s-.43.05-.62.14c-.2.1-.37.25-.52.45-.15.21-.27.47-.36.8-.09.33-.13.72-.13,1.18s.04.85.13,1.18c.09.32.21.59.36.8.15.21.32.36.52.45.2.09.41.14.62.14s.43-.05.63-.14c.2-.09.37-.25.52-.45.15-.21.27-.47.35-.8.09-.32.13-.72.13-1.18Z"/><path class="cls-2" d="m324.08,446.69c0,.5-.05.93-.16,1.29-.11.36-.25.66-.44.9s-.4.41-.65.53c-.25.12-.51.17-.79.17s-.54-.06-.79-.17c-.25-.12-.46-.29-.64-.53-.18-.24-.33-.54-.43-.9-.11-.36-.16-.79-.16-1.29s.05-.92.16-1.29c.11-.36.25-.66.43-.9.18-.24.4-.41.64-.53.25-.12.51-.17.79-.17s.54.06.79.17c.25.12.46.29.65.53s.33.54.44.9c.11.36.16.79.16,1.29Zm-.4,0c0-.46-.04-.85-.13-1.18-.09-.33-.21-.59-.35-.8-.15-.21-.32-.36-.52-.45-.2-.1-.41-.14-.63-.14s-.43.05-.62.14c-.2.1-.37.25-.52.45-.15.21-.27.47-.36.8-.09.33-.13.72-.13,1.18s.04.85.13,1.18c.09.32.21.59.36.8.15.21.32.36.52.45.2.09.41.14.62.14s.43-.05.63-.14c.2-.09.37-.25.52-.45.15-.21.27-.47.35-.8.09-.32.13-.72.13-1.18Z"/><path class="cls-7" d="m460.17,444.2h-6.98c-1.46,0-2.65,1.19-2.65,2.65h0c0,1.46,1.19,2.65,2.65,2.65h6.98c1.46,0,2.65-1.19,2.65-2.65h0c0-1.46-1.19-2.65-2.65-2.65Z"/><path class="cls-2" d="m456.9,446.85c0,2.03-1.64,3.67-3.67,3.67s-3.67-1.64-3.67-3.67,1.64-3.67,3.67-3.67,3.67,1.64,3.67,3.67Z"/><path class="cls-2" d="m305.47,461.94h1.3v-4.6c0-.09,0-.19.01-.29l-1.25,1.11s-.06.04-.1.04c-.05,0-.08-.02-.1-.05l-.12-.16,1.64-1.44h.3v5.39h1.24v.29h-2.92v-.29Z"/><path class="cls-2" d="m311.28,456.51c.22,0,.42.03.62.09.2.06.37.16.52.28.15.13.27.29.36.48.09.19.13.41.13.67,0,.21-.03.41-.1.59-.07.18-.15.36-.27.53-.11.17-.24.33-.39.49-.15.16-.3.32-.47.49l-1.77,1.81c.08-.02.17-.04.27-.05.09-.01.18-.02.28-.02h2.44s.08.01.1.04.04.06.04.1v.22h-3.65v-.14s0-.06.02-.09c.01-.03.03-.06.05-.08l1.93-1.96c.16-.16.31-.32.44-.47.14-.15.25-.3.35-.46.1-.15.18-.31.24-.48.06-.16.09-.34.09-.52,0-.21-.03-.39-.1-.54-.07-.15-.16-.28-.28-.38-.12-.1-.25-.17-.4-.22-.15-.05-.31-.07-.47-.07-.18,0-.34.03-.49.08-.15.05-.28.13-.4.23-.12.1-.21.21-.29.35-.08.13-.13.28-.16.44-.03.09-.08.14-.16.14,0,0-.01,0-.02,0,0,0-.01,0-.02,0l-.19-.03c.03-.24.1-.46.2-.65.1-.19.23-.35.38-.48.15-.13.33-.23.53-.3.2-.07.42-.1.65-.1Z"/><path class="cls-2" d="m313.94,461.92c0-.05,0-.1.03-.14.02-.04.04-.08.08-.12.03-.03.07-.06.12-.08.04-.02.09-.03.15-.03.05,0,.1,0,.14.03.05.02.09.05.12.08s.06.07.08.12c.02.05.03.09.03.14s0,.1-.03.15c-.02.04-.05.08-.08.12s-.07.06-.12.08c-.04.02-.09.03-.14.03-.1,0-.19-.04-.26-.11-.07-.07-.11-.16-.11-.26Z"/><path class="cls-2" d="m319.44,459.4c0,.5-.05.93-.16,1.29-.11.36-.25.66-.44.9-.18.24-.4.41-.65.53-.25.12-.51.17-.79.17s-.54-.06-.79-.17c-.25-.12-.46-.29-.64-.53-.18-.24-.33-.54-.43-.9-.11-.36-.16-.79-.16-1.29s.05-.92.16-1.29c.11-.36.25-.66.43-.9.18-.24.4-.41.64-.53.25-.12.51-.17.79-.17s.54.06.79.17c.25.12.46.29.65.53s.33.54.44.9c.11.36.16.79.16,1.29Zm-.4,0c0-.46-.04-.85-.13-1.18-.09-.33-.21-.59-.35-.8-.15-.21-.32-.36-.52-.45-.2-.1-.41-.14-.63-.14s-.43.05-.62.14c-.2.1-.37.25-.52.45-.15.21-.27.47-.36.8-.09.33-.13.72-.13,1.18s.04.85.13,1.18c.09.32.21.59.36.8.15.21.32.36.52.45.2.09.41.14.62.14s.43-.05.63-.14c.2-.09.37-.25.52-.45.15-.21.27-.47.35-.8.09-.32.13-.72.13-1.18Z"/><path class="cls-2" d="m324.08,459.4c0,.5-.05.93-.16,1.29-.11.36-.25.66-.44.9-.18.24-.4.41-.65.53-.25.12-.51.17-.79.17s-.54-.06-.79-.17c-.25-.12-.46-.29-.64-.53-.18-.24-.33-.54-.43-.9-.11-.36-.16-.79-.16-1.29s.05-.92.16-1.29c.11-.36.25-.66.43-.9.18-.24.4-.41.64-.53.25-.12.51-.17.79-.17s.54.06.79.17c.25.12.46.29.65.53s.33.54.44.9c.11.36.16.79.16,1.29Zm-.4,0c0-.46-.04-.85-.13-1.18-.09-.33-.21-.59-.35-.8-.15-.21-.32-.36-.52-.45-.2-.1-.41-.14-.63-.14s-.43.05-.62.14c-.2.1-.37.25-.52.45-.15.21-.27.47-.36.8-.09.33-.13.72-.13,1.18s.04.85.13,1.18c.09.32.21.59.36.8.15.21.32.36.52.45.2.09.41.14.62.14s.43-.05.63-.14c.2-.09.37-.25.52-.45.15-.21.27-.47.35-.8.09-.32.13-.72.13-1.18Z"/><path class="cls-7" d="m460.17,456.91h-6.98c-1.46,0-2.65,1.19-2.65,2.65h0c0,1.46,1.19,2.65,2.65,2.65h6.98c1.46,0,2.65-1.19,2.65-2.65h0c0-1.46-1.19-2.65-2.65-2.65Z"/><path class="cls-2" d="m456.9,459.56c0,2.03-1.64,3.67-3.67,3.67s-3.67-1.64-3.67-3.67,1.64-3.67,3.67-3.67,3.67,1.64,3.67,3.67Z"/><path class="cls-21" d="m273.76,333.74c-2.19,1.99-3.45,4.82-3.45,7.8s1.26,5.8,3.45,7.8c68.81,62.3,83.25,89.85,83.25,101.99v20.57h-186.47v-20.57c0-17.51,29.51-53.72,83.08-101.98,2.21-1.99,3.48-4.83,3.48-7.81s-1.27-5.82-3.48-7.82c-53.57-48.25-83.08-84.47-83.08-101.97v-20.57h186.47v20.57c0,12.14-14.45,39.69-83.25,101.99Z"/><path class="cls-22" d="m339.76,265.81c-12.38,16.04-32.9,37.96-66,67.93-.94.85-1.69,1.87-2.27,2.98v20.5c0,1.61-1.31,2.91-2.91,2.91s-2.91-1.3-2.91-2.91v-12.27c-.56-.08-1.11-.17-1.65-.27,2.82-18.67,9.58-30.4,16.49-38.13,7.94-8.91,17.22-13.82,31.19-30.15,4.77-5.58,8.85-11.04,12.31-16.15,5.04,1.8,9.97,3.76,15.76,5.55Z"/><path class="cls-24" d="m324,260.26c-3.46,5.11-7.54,10.57-12.31,16.15-13.96,16.33-23.24,21.24-31.19,30.15-6.9,7.73-13.67,19.46-16.49,38.13-.83-.12-1.64-.27-2.45-.43v27.2c0,1.61-1.3,2.91-2.91,2.91s-2.91-1.3-2.91-2.91v-28.41c0-1.02.52-1.91,1.31-2.43-.23-2.64-1.44-5.11-3.43-6.9-34.69-31.25-59.27-57.44-72.31-76.78,10.38-6.7,28.53,4.93,58.95,6.26,32.61,1.42,29.37-11.19,58.68-8.64,10.49.91,17.89,3.14,25.05,5.7Z"/><path class="cls-22" d="m360.89,471.89h-113.92c7.35-9.58,9.23-19.18,19.52-30.72,5.02-5.63,11.33-10.94,19.32-15.48,5.1,5.79,11.08,12.66,18.88,19.29,19.83,16.87,41.51,23.73,56.2,26.9Z"/><path class="cls-24" d="m285.82,425.7c-7.99,4.54-14.3,9.84-19.32,15.48-10.29,11.54-12.17,21.13-19.52,30.72h-82.58c15.68-2.79,24.85-8.91,30.43-14.24,6.55-6.28,7.82-11.2,14.96-14.39,10.04-4.48,15.37,1.74,25.05-.56,17.59-4.17,17.17-28.75,30.18-31.08,7.12-1.27,12.9,5.09,20.81,14.07Z"/><path class="cls-13" d="m276.24,211.18l.91-14.24h-112.75c-.56,0-1.1.06-1.62.19-1.32.3-2.49.97-3.41,1.89-1.3,1.29-2.09,3.07-2.09,5.04,0,3.38,2.34,6.21,5.5,6.92v20.77c0,20.3,28.82,56.55,85.65,107.73.79.72.91,1.59.91,2.05s-.12,1.33-.91,2.04c-56.83,51.19-85.65,87.43-85.65,107.75v20.76c-3.16.73-5.5,3.56-5.5,6.93s2.34,6.2,5.5,6.92c.52.14,1.06.19,1.62.19h94.22l.91-14.23h-88.99v-20.57c0-17.51,29.51-53.72,83.08-101.98,2.21-1.99,3.48-4.83,3.48-7.81s-1.27-5.82-3.48-7.82c-53.57-48.25-83.08-84.47-83.08-101.97v-20.57h105.69Z"/><path class="cls-5" d="m371.01,479.01c0,3.63-2.71,6.61-6.23,7.06-.29.04-.59.05-.89.05h-105.26l.91-14.23h97.47v-20.57c0-12.14-14.45-39.69-83.25-101.99-2.19-2-3.45-4.83-3.45-7.8s1.26-5.81,3.45-7.8c68.81-62.3,83.25-89.84,83.25-101.99v-20.57h-80.78l.91-14.24h86.74c.3,0,.6.01.89.05,3.51.45,6.23,3.43,6.23,7.07,0,1.96-.8,3.74-2.09,5.03-1.09,1.09-2.54,1.83-4.14,2.04v20.62c0,20.23-28.08,55.47-85.8,107.75-.79.71-.9,1.58-.9,2.04s.11,1.32.9,2.04c57.72,52.27,85.8,87.52,85.8,107.75v20.62c3.51.45,6.23,3.44,6.23,7.07Z"/><path class="cls-22" d="m268.14,361.57h.9c1.36,0,2.46,1.1,2.46,2.46v17.23c0,1.36-1.1,2.46-2.46,2.46h-.9c-1.36,0-2.46-1.1-2.46-2.46v-17.23c0-1.36,1.1-2.46,2.46-2.46Z"/><circle class="cls-24" cx="260.56" cy="393.58" r="3.45"/><path class="cls-22" d="m271.03,403.28c0,1.35-1.09,2.44-2.44,2.44s-2.44-1.09-2.44-2.44,1.09-2.44,2.44-2.44,2.44,1.09,2.44,2.44Z"/><path class="cls-24" d="m254.48,363.3c0,1.35-1.09,2.44-2.44,2.44s-2.44-1.09-2.44-2.44,1.09-2.44,2.44-2.44,2.44,1.09,2.44,2.44Z"/><path class="cls-12" d="m179.17,227.38c-2.82,1.87,1.54,12.72,4.5,20.1,6.05,15.04,11.43,18.03,13.53,19.01,1.69.79,6.43,2.99,8.65,1.09,4.02-3.46-2.21-18.71-11.09-29.11-4.62-5.41-12.85-12.9-15.59-11.09Z"/><path class="cls-12" d="m242.24,377.06c2.03,1.76-4.6,12.72-10.74,22.87-2.3,3.8-5.34,7.96-11.43,16.29-7.94,10.86-10.38,13.39-13.86,13.51-3.22.12-7.05-1.82-8.32-4.85-1.08-2.58-.94-7.47,14.55-23.56,1.1-1.14,26.36-27.24,29.8-24.26Z"/></g></svg>